# AST/ASF file generated using VICON BodyLanguage
# -----------------------------------------------
:version 1.10
:name VICON
:units
  mass 1.0
  length 0.45
  angle deg
:documentation
   .ast/.asf automatically generated from VICON data using
   VICON BodyBuilder and BodyLanguage model FoxedUp or BRILLIANT.MOD
:root
   order TX TY TZ RX RY RZ
   axis XYZ
   position 0 0 0  
   orientation 0 0 0 
:bonedata
  begin
     id 1 
     name lhipjoint
     direction 0.711131 -0.61297 0.344326 
     length 2.29162 
     axis 0 0 0  XYZ
  end
  begin
     id 2 
     name lfemur
     direction 0.34202 -0.939693 0  
     length 6.71424  
     axis 0 0 20  XYZ
    dof rx ry rz
    limits (-160.0 20.0)
           (-70.0 70.0)
           (-60.0 70.0)
  end
  begin
     id 3 
     name ltibia
     direction 0.34202 -0.939693 0   
     length 6.7087   
     axis 0 0 20   XYZ
    dof rx
    limits (-10.0 170.0)
  end
  begin
     id 4 
     name lfoot
     direction 0.0230374 -0.0632947 0.997729   
     length 1.56743   
     axis -90 7.62852e-016 20   XYZ
    dof rx rz
    limits (-45.0 90.0)
           (-70.0 20.0)
  end
  begin
     id 5 
     name ltoes
     direction 1.53585e-011 -4.21885e-011 1   
     length 0.802914   
     axis -90 7.62852e-016 20   XYZ
    dof rx
    limits (-90.0 20.0)
  end
  begin
     id 6 
     name rhipjoint
     direction -0.733192 -0.592884 0.333043   
     length 2.36925  
     axis 0 0 0  XYZ 
  end
  begin
     id 7 
     name rfemur
     direction -0.34202 -0.939693 0   
     length 6.67027   
     axis 0 0 -20   XYZ
    dof rx ry rz
    limits (-160.0 20.0)
           (-70.0 70.0)
           (-70.0 60.0)
  end
  begin
     id 8 
     name rtibia
     direction -0.34202 -0.939693 0   
     length 6.6862   
     axis 0 0 -20   XYZ
    dof rx
    limits (-10.0 170.0)
 end
 begin
     id 9 
     name rfoot
     direction -0.0949739 -0.260939 0.960672   
     length 1.67698  
     axis -90 -7.62852e-016 -20   XYZ
    dof rx rz
    limits (-45.0 90.0)
           (-20.0 70.0)
  end
  begin
     id 10 
     name rtoes
     direction -1.5353e-011 -4.21868e-011 1   
     length 0.846298   
     axis -90 -7.62852e-016 -20   XYZ
    dof rx
    limits (-90.0 20.0)
  end
  begin
     id 11 
     name lowerback
     direction -0.0206828 0.999785 -0.00109866   
     length 2.04382   
     axis 0 0 0   XYZ
    dof rx ry rz
    limits (-20.0 45.0)
           (-30.0 30.0)
           (-30.0 30.0)
  end
  begin
     id 12 
     name upperback
     direction -0.0105003 0.999727 -0.0208904   
     length 2.04538   
     axis 0 0 0   XYZ
    dof rx ry rz
    limits (-20.0 45.0)
           (-30.0 30.0)
           (-30.0 30.0)
  end
  begin
     id 13 
     name thorax
     direction -0.000416255 0.999808 -0.0196023   
     length 2.0399   
     axis 0 0 0   XYZ
    dof rx ry rz
    limits (-20.0 45.0)
           (-30.0 30.0)
           (-30.0 30.0)
  end
  begin
     id 14 
     name lowerneck
     direction 0.0627861 0.989205 0.13241   
     length 1.46207   
     axis 0 0 0   XYZ
    dof rx ry rz
    limits (-20.0 45.0)
           (-30.0 30.0)
           (-30.0 30.0)
  end
  begin
     id 15 
     name upperneck
     direction 0.00627179 0.994526 0.104303   
     length 1.41419   
     axis 0 0 0   XYZ
    dof rx ry rz
    limits (-20.0 45.0)
           (-30.0 30.0)
           (-30.0 30.0)
  end
  begin
     id 16
     name head
     direction -0.00443838 0.999688 0.0245968  
     length 1.50718  
     axis 0 0 0   XYZ
    dof rx ry rz
    limits (-20.0 45.0)
           (-30.0 30.0)
           (-30.0 30.0)
  end
  begin
     id 17 
     name lclavicle
     direction 0.758742 0.650995 -0.0227258  
     length 2.86888  
     axis 0 0 0   XYZ
    dof ry rz
    limits (-20.0 10.0)
           (0.0 20.0)
  end
  begin
     id 18 
     name lhumerus
     direction 1 -4.48962e-011 1.06664e-027   
     length 4.65776   
     axis -180 -30 -90   XYZ
    dof rx ry rz
    limits (-60.0 90.0)
           (-90.0 90.0)
           (-90.0 90.0)
  end
  begin
     id 19
     name lradius
     direction 1 -4.48968e-011 1.40404e-026   
     length 3.55539   
     axis -180 -30 -90   XYZ
    dof rx
    limits (-10.0 170.0)
  end
  begin
     id 20
     name lwrist
     direction 1 -4.48976e-011 3.32647e-026   
     length 1.77769   
     axis -2.20186e-014 90 90   XYZ
    dof ry
    limits (-180.0 0.0)
 end
  begin
     id 21 
     name lhand
     direction 1 -4.48982e-011 6.65293e-026   
     length 0.707264   
     axis -4.24514e-014 90 90   XYZ
    dof rx rz
    limits (-90.0 90.0)
           (-45.0 45.0)
  end
  begin
     id 22 
     name lfingers
     direction 1 -4.48966e-011 1.33059e-025   
     length 0.570215   
     axis -8.49028e-014 90 90   XYZ
    dof rx
    limits (0.0 90.0)
  end
  begin
     id 23
     name lthumb
     direction 0.707107 -6.3493e-011 0.707107   
     length 0.818718   
     axis -90 45 2.85299e-015   XYZ
    dof rx rz
    limits (-45.0 45.0)
           (-45.0 45.0)
  end
  begin
     id 24 
     name rclavicle
     direction -0.870343 0.482028 -0.100759   
     length 3.2251  
     axis 0 0 0   XYZ 
    dof ry rz
    limits (-10.0 20.0)
           (-20.0 0.0)
  end
  begin
     id 25 
     name rhumerus
     direction -1 -4.48974e-011 -9.45849e-028  
     length 4.71925   
     axis -180 30 90   XYZ
    dof rx ry rz
    limits (-90.0 60.0)
           (-90.0 90.0)
           (-90.0 90.0)
  end
  begin
     id 26 
     name rradius
     direction -1 -4.48965e-011 1.17607e-026   
     length 3.5699   
     axis -180 30 90   XYZ
    dof rx
    limits (-10.0 170.0)
  end
  begin
     id 27 
     name rwrist
     direction -1 -4.48968e-011 3.32647e-026   
     length 1.78495   
     axis -2.20186e-014 -90 -90   XYZ
    dof ry
    limits (-180.0 0.0)
  end
  begin
     id 28
     name rhand
     direction -1 -4.48995e-011 6.65293e-026   
     length 0.507757   
     axis -4.24514e-014 -90 -90   XYZ
    dof rx rz
    limits (-90.0 90.0)
           (-45.0 45.0)
  end
  begin
     id 29
     name rfingers
     direction -1 -4.48864e-011 1.33059e-025   
     length 0.409367   
     axis -8.49028e-014 -90 -90   XYZ
    dof rx
    limits (0.0 90.0)
  end
  begin
     id 30
     name rthumb
     direction -0.707107 -6.3494e-011 0.707107   
     length 0.587771   
     axis -90 -45 -2.85299e-015   XYZ
    dof rx rz
    limits (-45.0 45.0)
           (-45.0 45.0)
  end
:hierarchy
  begin
    root lhipjoint rhipjoint lowerback
    lhipjoint lfemur
    lfemur ltibia
    ltibia lfoot
    lfoot ltoes
    rhipjoint rfemur
    rfemur rtibia
    rtibia rfoot
    rfoot rtoes
    lowerback upperback
    upperback thorax
    thorax lowerneck lclavicle rclavicle
    lowerneck upperneck
    upperneck head
    lclavicle lhumerus
    lhumerus lradius
    lradius lwrist
    lwrist lhand lthumb
    lhand lfingers
    rclavicle rhumerus
    rhumerus rradius
    rradius rwrist
    rwrist rhand rthumb
    rhand rfingers
  end

#!OML:ASF E:\Steps\Project 1\Capture day 1\Session 2\Subject.ASF
:FULLY-SPECIFIED
:DEGREES
17
root 16.5272 16.3516 21.1492 -153.637 -1.78544 173.769
lowerback -33.3384 -3.04368 -11.5096
upperback -1.32793 -0.37928 -1.03317
thorax 15.6552 -1.32625 4.74054
lowerneck -6.52473 -2.97229 -0.0159861
upperneck 7.29562 -4.29153 2.6958
head 3.58627 -2.04521 0.666148
rclavicle -6.18717e-015 1.86858e-014
rhumerus -34.8192 -22.3196 -77.1786
rradius 26.7662
rwrist -0.665097
rhand -6.7844 -56.9741
rfingers 7.12502
rthumb 19.0782 -86.0584
lclavicle -6.18717e-015 1.86858e-014
lhumerus -28.8405 8.61316 80.8656
lradius 17.9133
lwrist -8.04184
lhand -24.4669 -13.2011
lfingers 7.12502
lthumb 2.02646 16.7691
rfemur -22.3044 4.26386 15.6329
rtibia 6.62333
rfoot -18.5793 0.741464
rtoes -13.4886
lfemur -23.917 -10.3565 -26.0612
ltibia 9.15215
lfoot -7.78011 2.13034
ltoes -44.6971
18
root 16.5259 16.3514 21.1514 -153.629 -1.73456 173.829
lowerback -33.3675 -2.99442 -11.435
upperback -1.32054 -0.335752 -1.05173
thorax 15.671 -1.30271 4.69935
lowerneck -6.48506 -2.94229 -0.0472285
upperneck 7.29695 -4.25599 2.76755
head 3.58145 -2.02659 0.69765
rclavicle 2.46493e-014 -3.33958e-014
rhumerus -34.7955 -22.2994 -77.2429
rradius 26.7586
rwrist -0.686513
rhand -6.79023 -56.9846
rfingers 7.12502
rthumb 19.0726 -86.0695
lclavicle 2.46493e-014 -3.33958e-014
lhumerus -28.8042 8.66057 80.8162
lradius 17.8529
lwrist -8.05027
lhand -24.2297 -13.386
lfingers 7.12502
lthumb 2.25553 16.5818
rfemur -22.3498 4.27709 15.6816
rtibia 6.63204
rfoot -18.5572 0.840974
rtoes -13.2378
lfemur -23.9563 -10.2913 -26.0039
ltibia 9.19123
lfoot -7.84628 2.20517
ltoes -44.4365
19
root 16.5257 16.3514 21.1542 -153.666 -1.7381 173.896
lowerback -33.3201 -3.01805 -11.4149
upperback -1.32274 -0.385718 -0.981646
thorax 15.6587 -1.32188 4.74711
lowerneck -6.26343 -2.87745 -0.297972
upperneck 7.17662 -4.15153 2.90986
head 3.50548 -1.97932 0.797547
rclavicle -2.80783e-015 -1.64991e-014
rhumerus -34.7655 -22.1944 -77.2327
rradius 26.7589
rwrist -0.680964
rhand -6.79537 -57.0006
rfingers 7.12502
rthumb 19.0676 -86.086
lclavicle -2.80783e-015 -1.64991e-014
lhumerus -28.8842 8.77282 80.8457
lradius 17.9122
lwrist -7.97859
lhand -24.1126 -13.1506
lfingers 7.12502
lthumb 2.36864 16.816
rfemur -22.3235 4.3116 15.7609
rtibia 6.62926
rfoot -18.5433 0.839417
rtoes -13.1614
lfemur -23.9479 -10.2082 -25.9357
ltibia 9.22723
lfoot -7.83984 2.24921
ltoes -44.8388
20
root 16.5244 16.3512 21.1532 -153.729 -1.76486 173.944
lowerback -33.2563 -3.04486 -11.4009
upperback -1.3274 -0.438787 -0.920216
thorax 15.6366 -1.34212 4.78749
lowerneck -6.19942 -2.90058 -0.40619
upperneck 7.18503 -4.17167 2.90531
head 3.49914 -1.99286 0.814861
rclavicle -2.31087e-015 -1.0138e-014
rhumerus -34.8635 -22.1477 -77.124
rradius 26.8024
rwrist -0.556008
rhand -6.8001 -56.9685
rfingers 7.12502
rthumb 19.0631 -86.0543
lclavicle -2.31087e-015 -1.0138e-014
lhumerus -28.977 8.8868 80.8564
lradius 17.9513
lwrist -8.02748
lhand -24.1578 -12.9533
lfingers 7.12502
lthumb 2.325 17.0137
rfemur -22.2339 4.33511 15.8231
rtibia 6.61428
rfoot -18.5572 0.813913
rtoes -13.016
lfemur -23.8605 -10.3017 -25.8651
ltibia 9.192
lfoot -7.79004 2.36873
ltoes -44.9985
21
root 16.5226 16.3501 21.1516 -153.787 -1.80081 174.021
lowerback -33.2334 -3.05 -11.2908
upperback -1.32938 -0.488898 -0.915666
thorax 15.6352 -1.35522 4.71407
lowerneck -6.24324 -2.99876 -0.274049
upperneck 7.31166 -4.31735 2.83035
head 3.54866 -2.06405 0.758298
rclavicle 6.13748e-015 -3.24019e-014
rhumerus -34.9888 -21.9911 -77.1771
rradius 26.89
rwrist -0.543832
rhand -6.8093 -56.9506
rfingers 7.12502
rthumb 19.0542 -86.0373
lclavicle 6.13748e-015 -3.24019e-014
lhumerus -29.0033 9.06216 80.7319
lradius 17.8895
lwrist -8.18544
lhand -24.0166 -13.0711
lfingers 7.12502
lthumb 2.46134 16.8944
rfemur -22.1465 4.33799 15.9236
rtibia 6.583
rfoot -18.5479 0.828525
rtoes -12.7822
lfemur -23.7752 -10.4432 -25.7498
ltibia 9.15384
lfoot -7.83114 2.50988
ltoes -44.551
22
root 16.5224 16.3487 21.1526 -153.836 -1.84433 174.103
lowerback -33.2193 -3.03361 -11.172
upperback -1.28412 -0.496768 -0.948797
thorax 15.6871 -1.34982 4.61285
lowerneck -6.40269 -3.11451 -0.0843097
upperneck 7.3671 -4.49707 2.84203
head 3.59731 -2.14603 0.71676
rclavicle 6.4605e-016 -1.2921e-014
rhumerus -34.964 -21.8939 -77.346
rradius 26.9454
rwrist -0.639557
rhand -6.81264 -56.9214
rfingers 7.12502
rthumb 19.051 -86.0084
lclavicle 6.4605e-016 -1.2921e-014
lhumerus -28.9261 8.96609 80.6736
lradius 17.8985
lwrist -8.18543
lhand -23.8548 -13.1137
lfingers 7.12502
lthumb 2.61756 16.85
rfemur -22.0851 4.35284 16.038
rtibia 6.55662
rfoot -18.5204 0.839257
rtoes -12.5291
lfemur -23.7318 -10.444 -25.6532
ltibia 9.16523
lfoot -7.85518 2.52279
ltoes -44.1224
23
root 16.5227 16.3485 21.1544 -153.894 -1.88807 174.169
lowerback -33.1854 -3.02996 -11.1181
upperback -1.22436 -0.500122 -0.931994
thorax 15.7476 -1.34702 4.60426
lowerneck -6.54984 -3.2155 -0.0185474
upperneck 7.35705 -4.63607 2.82312
head 3.62234 -2.21163 0.689387
rclavicle -3.00662e-015 5.1684e-015
rhumerus -34.8653 -21.8901 -77.3776
rradius 26.889
rwrist -0.678309
rhand -6.80252 -56.8395
rfingers 7.12502
rthumb 19.0607 -85.9255
lclavicle -3.00662e-015 5.1684e-015
lhumerus -28.8668 8.83047 80.7375
lradius 17.9468
lwrist -8.14388
lhand -23.7996 -13.1012
lfingers 7.12502
lthumb 2.67087 16.8619
rfemur -22.0151 4.38958 16.1293
rtibia 6.53642
rfoot -18.5063 0.821037
rtoes -12.1384
lfemur -23.6876 -10.3759 -25.5877
ltibia 9.18745
lfoot -7.81238 2.43837
ltoes -43.9241
24
root 16.5226 16.348 21.155 -153.951 -1.93414 174.256
lowerback -33.1069 -3.02499 -11.0585
upperback -1.22104 -0.524632 -0.895593
thorax 15.7246 -1.35058 4.60583
lowerneck -6.55832 -3.2352 -0.0370358
upperneck 7.4545 -4.66094 2.77381
head 3.65754 -2.22578 0.67432
rclavicle -5.2181e-016 1.25234e-014
rhumerus -34.8469 -21.8801 -77.3887
rradius 26.8123
rwrist -0.565168
rhand -6.80686 -56.8707
rfingers 7.12502
rthumb 19.0566 -85.9571
lclavicle -5.2181e-016 1.25234e-014
lhumerus -28.8661 8.69586 80.8046
lradius 17.899
lwrist -8.09983
lhand -23.6844 -13.277
lfingers 7.12502
lthumb 2.78211 16.6846
rfemur -21.9386 4.45655 16.2375
rtibia 6.51121
rfoot -18.4833 0.786305
rtoes -11.8088
lfemur -23.6371 -10.3319 -25.4948
ltibia 9.18156
lfoot -7.80532 2.33623
ltoes -44.1893
25
root 16.5226 16.3472 21.1556 -154.001 -1.98356 174.375
lowerback -33.0136 -3.01203 -10.9408
upperback -1.24598 -0.56749 -0.869853
thorax 15.6647 -1.35687 4.55715
lowerneck -6.38957 -3.17071 -0.0811128
upperneck 7.42755 -4.5694 2.77501
head 3.6149 -2.18416 0.690203
rclavicle -6.78353e-015 4.8901e-014
rhumerus -34.8708 -21.9312 -77.4141
rradius 26.7538
rwrist -0.393299
rhand -6.81069 -56.8707
rfingers 7.12502
rthumb 19.0529 -85.9575
lclavicle -6.78353e-015 4.8901e-014
lhumerus -28.8678 8.56017 80.8146
lradius 17.8153
lwrist -8.05086
lhand -23.5597 -13.3476
lfingers 7.12502
lthumb 2.90258 16.6124
rfemur -21.8764 4.5009 16.3934
rtibia 6.49852
rfoot -18.4773 0.765492
rtoes -12.2032
lfemur -23.6147 -10.333 -25.3454
ltibia 9.20086
lfoot -7.85583 2.30071
ltoes -44.098
26
root 16.5226 16.3473 21.1571 -154.026 -2.00887 174.468
lowerback -33.0024 -3.00563 -10.8497
upperback -1.22294 -0.589143 -0.849095
thorax 15.6937 -1.35971 4.52414
lowerneck -6.29284 -3.12014 -0.0883318
upperneck 7.32201 -4.49128 2.7421
head 3.55693 -2.14815 0.686921
rclavicle 9.16894e-015 -7.55382e-015
rhumerus -34.7913 -22.1131 -77.417
rradius 26.6586
rwrist -0.31552
rhand -6.80027 -56.708
rfingers 7.12502
rthumb 19.0629 -85.7938
lclavicle 9.16894e-015 -7.55382e-015
lhumerus -28.8428 8.50662 80.8368
lradius 17.8563
lwrist -7.9802
lhand -23.4235 -13.1617
lfingers 7.12502
lthumb 3.03413 16.7965
rfemur -21.8684 4.51714 16.515
rtibia 6.52133
rfoot -18.5129 0.721513
rtoes -12.9013
lfemur -23.653 -10.3549 -25.2195
ltibia 9.30642
lfoot -7.92191 2.41233
ltoes -43.7672
27
root 16.5216 16.3472 21.1572 -154.066 -1.99529 174.539
lowerback -33.0085 -2.96192 -10.7761
upperback -1.17477 -0.543947 -0.864827
thorax 15.7489 -1.33504 4.48844
lowerneck -6.36239 -3.13733 -0.0507705
upperneck 7.32343 -4.51803 2.74415
head 3.57041 -2.15933 0.678528
rclavicle -5.71506e-016 -7.15625e-015
rhumerus -34.685 -22.3083 -77.4647
rradius 26.5687
rwrist -0.306605
rhand -6.79515 -56.5942
rfingers 7.12502
rthumb 19.0678 -85.6795
lclavicle -5.71506e-016 -7.15625e-015
lhumerus -28.7863 8.25541 80.9297
lradius 17.9458
lwrist -7.7069
lhand -23.2292 -13.0996
lfingers 7.12502
lthumb 3.22172 16.8558
rfemur -21.8294 4.54008 16.5952
rtibia 6.50858
rfoot -18.5002 0.720639
rtoes -12.5975
lfemur -23.6415 -10.3496 -25.1489
ltibia 9.36688
lfoot -7.93878 2.5602
ltoes -44.7305
